<svg height="20" viewBox="0 0 20 20" width="20" xmlns="http://www.w3.org/2000/svg"><path d="m14.5965465 9.35674671c.4723305.47233054.8817986 1.04604999 1.1938018 1.65605459.1257468.2458503.0283836.5470892-.2174667.672836-.2458503.1257467-.5470892.0283835-.672836-.2174668-.2657846-.5196416-.614432-1.0081431-1.0106059-1.404317-2.1283376-2.12833766-5.57905478-2.12833766-7.70739243 0-.41337334.4133733-.74933077.8783796-1.00794069 1.3896555-.12463919.2464137-.42543694.3451314-.67185058.2204922-.24641365-.1246392-.34513136-.4254369-.22049218-.6718506.30624066-.6054426.70461675-1.15684397 1.19317666-1.64540389 2.51886195-2.51886194 6.60274402-2.51886194 9.12160602 0zm-1.7089741 2.49715849c.3542662.3542662.6461968.7900803.849357 1.2537024.1108322.2529246-.0043565.5478077-.2572811.6586398s-.5478077-.0043566-.6586398-.2572812c-.1543571-.3522506-.3765618-.6839732-.6405429-.9479542-1.1844973-1.1844974-3.10494693-1.1844974-4.28944427 0-.26270051.2627005-.47550708.5819313-.631061.9374347-.11069572.2529844-.40551665.3683321-.65850097.2576363-.25298433-.1106957-.36833203-.4055166-.25763631-.6585009.20413345-.4665272.48646097-.8900464.8400915-1.2436769 1.57502163-1.5750217 4.12863625-1.5750217 5.70365785 0zm-1.9246692 1.9326284c.5070653.5070653.5070653 1.3291807 0 1.8362461-.5070654.5070654-1.32918082.5070654-1.83624619 0-.50706538-.5070654-.50706538-1.3291808 0-1.8362461.50706537-.5070654 1.32918079-.5070654 1.83624619 0z" fill="#212121"/></svg>